<svg width="2050" height="780" viewBox="0 0 2050 780" fill="none" xmlns="http://www.w3.org/2000/svg">
<rect width="2050" height="780" fill="white"/>
<mask id="mask0_613_27" style="mask-type:luminance" maskUnits="userSpaceOnUse" x="3" y="1" width="2047" height="779">
<path d="M3 1H2049.5V779.667H3V1Z" fill="white"/>
</mask>
<g mask="url(#mask0_613_27)">
<mask id="mask1_613_27" style="mask-type:luminance" maskUnits="userSpaceOnUse" x="-385" y="-274" width="2759" height="1054">
<path d="M-384.573 -245.37C-81.8698 -151.187 41.9062 8.93233 123.974 222.87C180.479 368.188 220.839 600.958 497.984 607.688C667.495 611.724 753.599 496.01 928.495 556.557C1069.76 604.995 1102.05 755.693 1318.65 732.823C1523.15 709.948 1500.28 416.625 1730.33 510.813C1871.59 568.667 1957.69 859.302 2166.22 758.385C2355.92 666.891 2397.63 341.276 2362.65 206.724C2292.69 -58.3437 1895.81 -140.422 1562.16 -218.464C1006.53 -348.979 168.37 -202.318 -384.573 -245.37Z" fill="white"/>
</mask>
<g mask="url(#mask1_613_27)">
<path d="M3 779.667V1H2049.5V779.667H3Z" fill="url(#paint0_linear_613_27)"/>
<path d="M719.7 183H728.1V267H719.7V226.2H675.6V267H667.2V183H675.6V217.8H719.7V183ZM768.483 268.56C762.963 268.56 757.923 267.14 753.363 264.3C748.843 261.46 745.223 257.66 742.503 252.9C739.823 248.1 738.483 242.8 738.483 237C738.483 232.6 739.263 228.5 740.823 224.7C742.383 220.86 744.523 217.5 747.243 214.62C750.003 211.7 753.203 209.42 756.843 207.78C760.483 206.14 764.363 205.32 768.483 205.32C772.923 205.32 777.003 206.2 780.723 207.96C784.483 209.72 787.703 212.18 790.383 215.34C793.103 218.5 795.143 222.2 796.503 226.44C797.903 230.68 798.483 235.26 798.243 240.18H747.363C747.843 243.98 749.043 247.38 750.963 250.38C752.923 253.38 755.403 255.76 758.403 257.52C761.443 259.24 764.803 260.12 768.483 260.16C772.483 260.16 776.083 259.12 779.283 257.04C782.523 254.96 785.123 252.1 787.083 248.46L795.603 250.44C793.203 255.76 789.583 260.12 784.743 263.52C779.903 266.88 774.483 268.56 768.483 268.56ZM747.123 233.4H789.783C789.503 229.68 788.363 226.28 786.363 223.2C784.403 220.08 781.863 217.6 778.743 215.76C775.623 213.88 772.203 212.94 768.483 212.94C764.763 212.94 761.363 213.86 758.283 215.7C755.203 217.5 752.683 219.96 750.723 223.08C748.763 226.16 747.563 229.6 747.123 233.4ZM846.581 207H855.461L822.641 297H813.701L824.621 267L803.081 207H812.261L828.821 255.42L846.581 207ZM860.855 273.72L864.575 253.44H872.975L866.435 273.72H860.855ZM918.023 267V183H926.423V267H918.023ZM937.791 214.32L941.511 183H949.911L943.371 214.32H937.791ZM958.997 267V207H967.397V215.28C969.557 212.24 972.317 209.82 975.677 208.02C979.037 206.22 982.717 205.32 986.717 205.32C991.237 205.32 995.377 206.44 999.137 208.68C1002.9 210.88 1005.84 213.82 1007.96 217.5C1010.08 213.82 1013 210.88 1016.72 208.68C1020.44 206.44 1024.56 205.32 1029.08 205.32C1033.6 205.32 1037.72 206.42 1041.44 208.62C1045.16 210.82 1048.12 213.78 1050.32 217.5C1052.52 221.22 1053.62 225.34 1053.62 229.86V267H1045.22V231.72C1045.22 228.52 1044.44 225.56 1042.88 222.84C1041.32 220.12 1039.22 217.94 1036.58 216.3C1033.98 214.62 1031.08 213.78 1027.88 213.78C1024.68 213.78 1021.76 214.56 1019.12 216.12C1016.52 217.64 1014.44 219.76 1012.88 222.48C1011.32 225.16 1010.54 228.24 1010.54 231.72V267H1002.14V231.72C1002.14 228.24 1001.36 225.16 999.797 222.48C998.237 219.76 996.137 217.64 993.497 216.12C990.857 214.56 987.937 213.78 984.737 213.78C981.577 213.78 978.677 214.62 976.037 216.3C973.397 217.94 971.297 220.12 969.737 222.84C968.177 225.56 967.397 228.52 967.397 231.72V267H958.997ZM1094.47 267V183H1122.25C1128.05 183 1133.49 184.1 1138.57 186.3C1143.65 188.46 1148.11 191.48 1151.95 195.36C1155.79 199.2 1158.79 203.66 1160.95 208.74C1163.15 213.78 1164.25 219.2 1164.25 225C1164.25 230.8 1163.15 236.24 1160.95 241.32C1158.79 246.36 1155.79 250.82 1151.95 254.7C1148.11 258.54 1143.65 261.56 1138.57 263.76C1133.49 265.92 1128.05 267 1122.25 267H1094.47ZM1102.87 258.6H1122.25C1126.89 258.6 1131.23 257.74 1135.27 256.02C1139.35 254.26 1142.93 251.84 1146.01 248.76C1149.09 245.68 1151.49 242.12 1153.21 238.08C1154.97 234 1155.85 229.64 1155.85 225C1155.85 220.36 1154.97 216.02 1153.21 211.98C1151.49 207.9 1149.07 204.32 1145.95 201.24C1142.87 198.16 1139.31 195.76 1135.27 194.04C1131.23 192.28 1126.89 191.4 1122.25 191.4H1102.87V258.6ZM1174.62 207H1183.02V267H1174.62V207ZM1178.88 196.5C1177.52 196.5 1176.36 196.06 1175.4 195.18C1174.48 194.26 1174.02 193.12 1174.02 191.76C1174.02 190.4 1174.48 189.28 1175.4 188.4C1176.36 187.48 1177.52 187.02 1178.88 187.02C1180.2 187.02 1181.32 187.48 1182.24 188.4C1183.2 189.28 1183.68 190.4 1183.68 191.76C1183.68 193.12 1183.22 194.26 1182.3 195.18C1181.38 196.06 1180.24 196.5 1178.88 196.5ZM1223.29 268.56C1217.77 268.56 1212.73 267.14 1208.17 264.3C1203.65 261.46 1200.03 257.66 1197.31 252.9C1194.63 248.1 1193.29 242.8 1193.29 237C1193.29 232.6 1194.07 228.5 1195.63 224.7C1197.19 220.86 1199.33 217.5 1202.05 214.62C1204.81 211.7 1208.01 209.42 1211.65 207.78C1215.29 206.14 1219.17 205.32 1223.29 205.32C1228.81 205.32 1233.83 206.74 1238.35 209.58C1242.91 212.42 1246.53 216.24 1249.21 221.04C1251.93 225.84 1253.29 231.16 1253.29 237C1253.29 241.36 1252.51 245.44 1250.95 249.24C1249.39 253.04 1247.23 256.4 1244.47 259.32C1241.75 262.2 1238.57 264.46 1234.93 266.1C1231.33 267.74 1227.45 268.56 1223.29 268.56ZM1223.29 260.16C1227.37 260.16 1231.03 259.1 1234.27 256.98C1237.55 254.82 1240.13 251.98 1242.01 248.46C1243.93 244.94 1244.89 241.12 1244.89 237C1244.89 232.8 1243.93 228.94 1242.01 225.42C1240.09 221.86 1237.49 219.02 1234.21 216.9C1230.97 214.78 1227.33 213.72 1223.29 213.72C1219.21 213.72 1215.53 214.8 1212.25 216.96C1209.01 219.08 1206.43 221.9 1204.51 225.42C1202.63 228.94 1201.69 232.8 1201.69 237C1201.69 241.32 1202.67 245.24 1204.63 248.76C1206.59 252.24 1209.21 255.02 1212.49 257.1C1215.77 259.14 1219.37 260.16 1223.29 260.16ZM1310.56 207H1318.96V269.22C1318.96 273.06 1318.12 276.66 1316.44 280.02C1314.8 283.38 1312.56 286.32 1309.72 288.84C1306.92 291.4 1303.72 293.4 1300.12 294.84C1296.52 296.28 1292.78 297 1288.9 297C1284.74 297 1280.72 296.04 1276.84 294.12C1272.96 292.24 1269.58 289.72 1266.7 286.56C1263.86 283.4 1261.84 279.9 1260.64 276.06L1268.38 272.52C1269.14 275.52 1270.56 278.22 1272.64 280.62C1274.76 283.06 1277.24 284.98 1280.08 286.38C1282.96 287.82 1285.9 288.54 1288.9 288.54C1291.66 288.54 1294.32 288.02 1296.88 286.98C1299.48 285.98 1301.8 284.6 1303.84 282.84C1305.92 281.08 1307.56 279.02 1308.76 276.66C1309.96 274.34 1310.56 271.86 1310.56 269.22V255.96C1308.48 259.72 1305.66 262.76 1302.1 265.08C1298.58 267.4 1294.48 268.56 1289.8 268.56C1285.6 268.56 1281.64 267.74 1277.92 266.1C1274.24 264.46 1271 262.2 1268.2 259.32C1265.4 256.4 1263.2 253.04 1261.6 249.24C1260.04 245.44 1259.26 241.36 1259.26 237C1259.26 232.64 1260.04 228.56 1261.6 224.76C1263.2 220.92 1265.4 217.56 1268.2 214.68C1271 211.76 1274.24 209.48 1277.92 207.84C1281.64 206.2 1285.6 205.38 1289.8 205.38C1294.48 205.38 1298.58 206.54 1302.1 208.86C1305.66 211.14 1308.48 214.18 1310.56 217.98V207ZM1289.86 260.4C1294.02 260.4 1297.6 259.32 1300.6 257.16C1303.64 255 1305.98 252.14 1307.62 248.58C1309.26 245.02 1310.08 241.16 1310.08 237C1310.08 232.72 1309.24 228.82 1307.56 225.3C1305.92 221.74 1303.58 218.9 1300.54 216.78C1297.5 214.62 1293.94 213.54 1289.86 213.54C1285.78 213.54 1282.06 214.6 1278.7 216.72C1275.38 218.8 1272.74 221.62 1270.78 225.18C1268.82 228.74 1267.84 232.68 1267.84 237C1267.84 241.32 1268.84 245.26 1270.84 248.82C1272.84 252.34 1275.5 255.16 1278.82 257.28C1282.18 259.36 1285.86 260.4 1289.86 260.4ZM1359.23 268.56C1353.71 268.56 1348.67 267.14 1344.11 264.3C1339.59 261.46 1335.97 257.66 1333.25 252.9C1330.57 248.1 1329.23 242.8 1329.23 237C1329.23 232.6 1330.01 228.5 1331.57 224.7C1333.13 220.86 1335.27 217.5 1337.99 214.62C1340.75 211.7 1343.95 209.42 1347.59 207.78C1351.23 206.14 1355.11 205.32 1359.23 205.32C1364.75 205.32 1369.77 206.74 1374.29 209.58C1378.85 212.42 1382.47 216.24 1385.15 221.04C1387.87 225.84 1389.23 231.16 1389.23 237C1389.23 241.36 1388.45 245.44 1386.89 249.24C1385.33 253.04 1383.17 256.4 1380.41 259.32C1377.69 262.2 1374.51 264.46 1370.87 266.1C1367.27 267.74 1363.39 268.56 1359.23 268.56ZM1359.23 260.16C1363.31 260.16 1366.97 259.1 1370.21 256.98C1373.49 254.82 1376.07 251.98 1377.95 248.46C1379.87 244.94 1380.83 241.12 1380.83 237C1380.83 232.8 1379.87 228.94 1377.95 225.42C1376.03 221.86 1373.43 219.02 1370.15 216.9C1366.91 214.78 1363.27 213.72 1359.23 213.72C1355.15 213.72 1351.47 214.8 1348.19 216.96C1344.95 219.08 1342.37 221.9 1340.45 225.42C1338.57 228.94 1337.63 232.8 1337.63 237C1337.63 241.32 1338.61 245.24 1340.57 248.76C1342.53 252.24 1345.15 255.02 1348.43 257.1C1351.71 259.14 1355.31 260.16 1359.23 260.16Z" fill="white"/>
</g>
</g>
<defs>
<linearGradient id="paint0_linear_613_27" x1="2.99777" y1="253.143" x2="2049.5" y2="253.143" gradientUnits="userSpaceOnUse">
<stop stop-color="#004AAD"/>
<stop offset="0.125" stop-color="#004AAD"/>
<stop offset="0.156" stop-color="#004AAD"/>
<stop offset="0.16" stop-color="#014AAE"/>
<stop offset="0.164" stop-color="#024AAE"/>
<stop offset="0.168" stop-color="#034AAE"/>
<stop offset="0.172" stop-color="#034AAF"/>
<stop offset="0.176" stop-color="#044AAF"/>
<stop offset="0.18" stop-color="#044AAF"/>
<stop offset="0.184" stop-color="#054AB0"/>
<stop offset="0.188" stop-color="#054AB0"/>
<stop offset="0.191" stop-color="#064AB0"/>
<stop offset="0.195" stop-color="#064AB1"/>
<stop offset="0.199" stop-color="#074AB1"/>
<stop offset="0.203" stop-color="#074AB1"/>
<stop offset="0.207" stop-color="#084AB2"/>
<stop offset="0.211" stop-color="#094AB2"/>
<stop offset="0.215" stop-color="#094AB2"/>
<stop offset="0.219" stop-color="#0A4BB3"/>
<stop offset="0.223" stop-color="#0A4BB3"/>
<stop offset="0.227" stop-color="#0B4BB3"/>
<stop offset="0.23" stop-color="#0B4BB3"/>
<stop offset="0.234" stop-color="#0C4BB4"/>
<stop offset="0.238" stop-color="#0C4BB4"/>
<stop offset="0.242" stop-color="#0D4BB4"/>
<stop offset="0.246" stop-color="#0D4BB5"/>
<stop offset="0.25" stop-color="#0E4BB5"/>
<stop offset="0.254" stop-color="#0E4BB5"/>
<stop offset="0.258" stop-color="#0F4BB6"/>
<stop offset="0.262" stop-color="#104BB6"/>
<stop offset="0.266" stop-color="#104BB6"/>
<stop offset="0.27" stop-color="#114BB7"/>
<stop offset="0.273" stop-color="#114BB7"/>
<stop offset="0.277" stop-color="#124BB7"/>
<stop offset="0.281" stop-color="#124BB8"/>
<stop offset="0.285" stop-color="#134BB8"/>
<stop offset="0.289" stop-color="#134BB8"/>
<stop offset="0.293" stop-color="#144BB9"/>
<stop offset="0.297" stop-color="#144BB9"/>
<stop offset="0.301" stop-color="#154BB9"/>
<stop offset="0.305" stop-color="#164BBA"/>
<stop offset="0.309" stop-color="#164BBA"/>
<stop offset="0.313" stop-color="#174BBA"/>
<stop offset="0.316" stop-color="#174BBA"/>
<stop offset="0.32" stop-color="#184BBB"/>
<stop offset="0.324" stop-color="#184BBB"/>
<stop offset="0.328" stop-color="#194BBB"/>
<stop offset="0.332" stop-color="#194BBC"/>
<stop offset="0.336" stop-color="#1A4BBC"/>
<stop offset="0.34" stop-color="#1A4BBC"/>
<stop offset="0.344" stop-color="#1B4CBD"/>
<stop offset="0.348" stop-color="#1C4CBD"/>
<stop offset="0.352" stop-color="#1C4CBD"/>
<stop offset="0.355" stop-color="#1D4CBE"/>
<stop offset="0.359" stop-color="#1D4CBE"/>
<stop offset="0.363" stop-color="#1E4CBE"/>
<stop offset="0.367" stop-color="#1E4CBF"/>
<stop offset="0.371" stop-color="#1F4CBF"/>
<stop offset="0.375" stop-color="#1F4CBF"/>
<stop offset="0.379" stop-color="#204CC0"/>
<stop offset="0.383" stop-color="#204CC0"/>
<stop offset="0.387" stop-color="#214CC0"/>
<stop offset="0.391" stop-color="#214CC1"/>
<stop offset="0.395" stop-color="#224CC1"/>
<stop offset="0.398" stop-color="#234CC1"/>
<stop offset="0.402" stop-color="#234CC1"/>
<stop offset="0.406" stop-color="#244CC2"/>
<stop offset="0.41" stop-color="#244CC2"/>
<stop offset="0.414" stop-color="#254CC2"/>
<stop offset="0.418" stop-color="#254CC3"/>
<stop offset="0.422" stop-color="#264CC3"/>
<stop offset="0.426" stop-color="#264CC3"/>
<stop offset="0.43" stop-color="#274CC4"/>
<stop offset="0.434" stop-color="#274CC4"/>
<stop offset="0.438" stop-color="#284CC4"/>
<stop offset="0.441" stop-color="#294CC5"/>
<stop offset="0.445" stop-color="#294CC5"/>
<stop offset="0.449" stop-color="#2A4CC5"/>
<stop offset="0.453" stop-color="#2A4CC6"/>
<stop offset="0.457" stop-color="#2B4CC6"/>
<stop offset="0.461" stop-color="#2B4CC6"/>
<stop offset="0.465" stop-color="#2C4DC7"/>
<stop offset="0.469" stop-color="#2C4DC7"/>
<stop offset="0.473" stop-color="#2D4DC7"/>
<stop offset="0.477" stop-color="#2D4DC8"/>
<stop offset="0.48" stop-color="#2E4DC8"/>
<stop offset="0.484" stop-color="#2E4DC8"/>
<stop offset="0.488" stop-color="#2F4DC8"/>
<stop offset="0.492" stop-color="#304DC9"/>
<stop offset="0.496" stop-color="#304DC9"/>
<stop offset="0.5" stop-color="#314DC9"/>
<stop offset="0.504" stop-color="#314DCA"/>
<stop offset="0.508" stop-color="#324DCA"/>
<stop offset="0.512" stop-color="#324DCA"/>
<stop offset="0.516" stop-color="#334DCB"/>
<stop offset="0.52" stop-color="#334DCB"/>
<stop offset="0.523" stop-color="#344DCB"/>
<stop offset="0.527" stop-color="#344DCC"/>
<stop offset="0.531" stop-color="#354DCC"/>
<stop offset="0.535" stop-color="#364DCC"/>
<stop offset="0.539" stop-color="#364DCD"/>
<stop offset="0.543" stop-color="#374DCD"/>
<stop offset="0.547" stop-color="#374DCD"/>
<stop offset="0.551" stop-color="#384DCE"/>
<stop offset="0.555" stop-color="#384DCE"/>
<stop offset="0.559" stop-color="#394DCE"/>
<stop offset="0.563" stop-color="#394DCF"/>
<stop offset="0.566" stop-color="#3A4DCF"/>
<stop offset="0.57" stop-color="#3A4DCF"/>
<stop offset="0.574" stop-color="#3B4DCF"/>
<stop offset="0.578" stop-color="#3B4DD0"/>
<stop offset="0.582" stop-color="#3C4DD0"/>
<stop offset="0.586" stop-color="#3D4DD0"/>
<stop offset="0.59" stop-color="#3D4ED1"/>
<stop offset="0.594" stop-color="#3E4ED1"/>
<stop offset="0.598" stop-color="#3E4ED1"/>
<stop offset="0.602" stop-color="#3F4ED2"/>
<stop offset="0.605" stop-color="#3F4ED2"/>
<stop offset="0.609" stop-color="#404ED2"/>
<stop offset="0.613" stop-color="#404ED3"/>
<stop offset="0.617" stop-color="#414ED3"/>
<stop offset="0.621" stop-color="#414ED3"/>
<stop offset="0.625" stop-color="#424ED4"/>
<stop offset="0.629" stop-color="#434ED4"/>
<stop offset="0.633" stop-color="#434ED4"/>
<stop offset="0.637" stop-color="#444ED5"/>
<stop offset="0.641" stop-color="#444ED5"/>
<stop offset="0.645" stop-color="#454ED5"/>
<stop offset="0.648" stop-color="#454ED6"/>
<stop offset="0.652" stop-color="#464ED6"/>
<stop offset="0.656" stop-color="#464ED6"/>
<stop offset="0.66" stop-color="#474ED6"/>
<stop offset="0.664" stop-color="#474ED7"/>
<stop offset="0.668" stop-color="#484ED7"/>
<stop offset="0.672" stop-color="#484ED7"/>
<stop offset="0.676" stop-color="#494ED8"/>
<stop offset="0.68" stop-color="#4A4ED8"/>
<stop offset="0.684" stop-color="#4A4ED8"/>
<stop offset="0.688" stop-color="#4B4ED9"/>
<stop offset="0.691" stop-color="#4B4ED9"/>
<stop offset="0.695" stop-color="#4C4ED9"/>
<stop offset="0.699" stop-color="#4C4EDA"/>
<stop offset="0.703" stop-color="#4D4EDA"/>
<stop offset="0.707" stop-color="#4D4EDA"/>
<stop offset="0.711" stop-color="#4E4EDB"/>
<stop offset="0.715" stop-color="#4E4FDB"/>
<stop offset="0.719" stop-color="#4F4FDB"/>
<stop offset="0.723" stop-color="#504FDC"/>
<stop offset="0.727" stop-color="#504FDC"/>
<stop offset="0.73" stop-color="#514FDC"/>
<stop offset="0.734" stop-color="#514FDC"/>
<stop offset="0.738" stop-color="#524FDD"/>
<stop offset="0.742" stop-color="#524FDD"/>
<stop offset="0.746" stop-color="#534FDD"/>
<stop offset="0.75" stop-color="#534FDE"/>
<stop offset="0.754" stop-color="#544FDE"/>
<stop offset="0.758" stop-color="#544FDE"/>
<stop offset="0.762" stop-color="#554FDF"/>
<stop offset="0.766" stop-color="#564FDF"/>
<stop offset="0.77" stop-color="#564FDF"/>
<stop offset="0.773" stop-color="#574FE0"/>
<stop offset="0.777" stop-color="#574FE0"/>
<stop offset="0.781" stop-color="#584FE0"/>
<stop offset="0.785" stop-color="#584FE1"/>
<stop offset="0.789" stop-color="#594FE1"/>
<stop offset="0.793" stop-color="#594FE1"/>
<stop offset="0.797" stop-color="#5A4FE2"/>
<stop offset="0.801" stop-color="#5A4FE2"/>
<stop offset="0.805" stop-color="#5B4FE2"/>
<stop offset="0.809" stop-color="#5B4FE3"/>
<stop offset="0.813" stop-color="#5C4FE3"/>
<stop offset="0.816" stop-color="#5D4FE3"/>
<stop offset="0.82" stop-color="#5D4FE3"/>
<stop offset="0.824" stop-color="#5E4FE4"/>
<stop offset="0.828" stop-color="#5E4FE4"/>
<stop offset="0.832" stop-color="#5F4FE4"/>
<stop offset="0.836" stop-color="#5F50E5"/>
<stop offset="0.84" stop-color="#6050E5"/>
<stop offset="0.844" stop-color="#6050E5"/>
<stop offset="0.848" stop-color="#6150E6"/>
<stop offset="0.852" stop-color="#6150E6"/>
<stop offset="0.855" stop-color="#6250E6"/>
<stop offset="0.859" stop-color="#6350E7"/>
<stop offset="0.863" stop-color="#6350E7"/>
<stop offset="0.867" stop-color="#6450E7"/>
<stop offset="0.871" stop-color="#6450E8"/>
<stop offset="0.875" stop-color="#6550E8"/>
<stop offset="0.879" stop-color="#6550E8"/>
<stop offset="0.883" stop-color="#6650E9"/>
<stop offset="0.887" stop-color="#6650E9"/>
<stop offset="0.891" stop-color="#6750E9"/>
<stop offset="0.895" stop-color="#6750EA"/>
<stop offset="0.898" stop-color="#6850EA"/>
<stop offset="0.902" stop-color="#6850EA"/>
<stop offset="0.906" stop-color="#6950EA"/>
<stop offset="0.91" stop-color="#6A50EB"/>
<stop offset="0.914" stop-color="#6A50EB"/>
<stop offset="0.918" stop-color="#6B50EB"/>
<stop offset="0.922" stop-color="#6B50EC"/>
<stop offset="0.926" stop-color="#6C50EC"/>
<stop offset="0.93" stop-color="#6C50EC"/>
<stop offset="0.934" stop-color="#6D50ED"/>
<stop offset="0.938" stop-color="#6D50ED"/>
<stop offset="0.941" stop-color="#6E50ED"/>
<stop offset="0.945" stop-color="#6E50EE"/>
<stop offset="0.949" stop-color="#6F50EE"/>
<stop offset="0.953" stop-color="#7050EE"/>
<stop offset="0.957" stop-color="#7050EF"/>
<stop offset="0.961" stop-color="#7151EF"/>
<stop offset="0.965" stop-color="#7151EF"/>
<stop offset="0.969" stop-color="#7251F0"/>
<stop offset="0.973" stop-color="#7251F0"/>
<stop offset="0.977" stop-color="#7351F0"/>
<stop offset="0.98" stop-color="#7351F1"/>
<stop offset="0.984" stop-color="#7451F1"/>
<stop offset="0.988" stop-color="#7451F1"/>
<stop offset="0.992" stop-color="#7551F1"/>
<stop offset="0.996" stop-color="#7551F2"/>
<stop offset="1" stop-color="#7651F2"/>
</linearGradient>
</defs>
</svg>
