<svg width="2050" height="780" viewBox="0 0 2050 780" fill="none" xmlns="http://www.w3.org/2000/svg">
<rect width="2050" height="780" fill="white"/>
<mask id="mask0_613_27" style="mask-type:luminance" maskUnits="userSpaceOnUse" x="2" y="0" width="2047" height="780">
<path d="M2 0H2048.5V780H2V0Z" fill="white"/>
</mask>
<g mask="url(#mask0_613_27)">
<mask id="mask1_613_27" style="mask-type:luminance" maskUnits="userSpaceOnUse" x="0" y="0" width="2051" height="782">
<path d="M2050.58 1.52588e-05H0.583374V781.336H2050.58V1.52588e-05Z" fill="black" fill-opacity="0.8588"/>
</mask>
<g mask="url(#mask1_613_27)">
<mask id="mask2_613_27" style="mask-type:luminance" maskUnits="userSpaceOnUse" x="1" y="0" width="2048" height="780">
<path d="M2048.58 0H1.91663V780H2048.58V0Z" fill="white"/>
</mask>
<g mask="url(#mask2_613_27)">
<mask id="mask3_613_27" style="mask-type:luminance" maskUnits="userSpaceOnUse" x="2" y="0" width="2047" height="780">
<path d="M2 0H2048.5V780H2V0Z" fill="white"/>
</mask>
<g mask="url(#mask3_613_27)">
<mask id="mask4_613_27" style="mask-type:luminance" maskUnits="userSpaceOnUse" x="-386" y="-276" width="2759" height="1056">
<path d="M-385.573 -246.792C-82.8698 -152.448 40.9062 7.94589 122.974 222.25C179.479 367.816 219.839 600.986 496.984 607.726C666.495 611.77 752.599 495.858 927.495 556.509C1068.76 605.029 1101.05 755.985 1317.65 733.076C1522.15 710.162 1499.28 416.337 1729.33 510.685C1870.59 568.639 1956.69 859.772 2165.22 758.682C2354.92 667.031 2396.63 340.859 2361.65 206.076C2291.69 -59.4454 1894.81 -141.664 1561.16 -219.839C1005.53 -350.578 167.37 -203.666 -385.573 -246.792Z" fill="white"/>
</mask>
<g mask="url(#mask4_613_27)">
<path d="M2 780V0H2048.5V780H2Z" fill="url(#paint0_linear_613_27)"/>
</g>
</g>
</g>
</g>
</g>
<path d="M500.5 131H514.5V271H500.5V203H427V271H413V131H427V189H500.5V131ZM581.805 273.6C572.605 273.6 564.205 271.233 556.605 266.5C549.071 261.767 543.038 255.433 538.505 247.5C534.038 239.5 531.805 230.667 531.805 221C531.805 213.667 533.105 206.833 535.705 200.5C538.305 194.1 541.871 188.5 546.405 183.7C551.005 178.833 556.338 175.033 562.405 172.3C568.471 169.567 574.938 168.2 581.805 168.2C589.205 168.2 596.005 169.667 602.205 172.6C608.471 175.533 613.838 179.633 618.305 184.9C622.838 190.167 626.238 196.333 628.505 203.4C630.838 210.467 631.805 218.1 631.405 226.3H546.605C547.405 232.633 549.405 238.3 552.605 243.3C555.871 248.3 560.005 252.267 565.005 255.2C570.071 258.067 575.671 259.533 581.805 259.6C588.471 259.6 594.471 257.867 599.805 254.4C605.205 250.933 609.538 246.167 612.805 240.1L627.005 243.4C623.005 252.267 616.971 259.533 608.905 265.2C600.838 270.8 591.805 273.6 581.805 273.6ZM546.205 215H617.305C616.838 208.8 614.938 203.133 611.605 198C608.338 192.8 604.105 188.667 598.905 185.6C593.705 182.467 588.005 180.9 581.805 180.9C575.605 180.9 569.938 182.433 564.805 185.5C559.671 188.5 555.471 192.6 552.205 197.8C548.938 202.933 546.938 208.667 546.205 215ZM711.969 171H726.769L672.069 321H657.169L675.369 271L639.469 171H654.769L682.369 251.7L711.969 171ZM735.758 282.2L741.958 248.4H755.958L745.058 282.2H735.758ZM831.039 271V131H845.039V271H831.039ZM863.984 183.2L870.184 131H884.184L873.284 183.2H863.984ZM899.328 271V171H913.328V184.8C916.928 179.733 921.528 175.7 927.128 172.7C932.728 169.7 938.861 168.2 945.528 168.2C953.061 168.2 959.961 170.067 966.228 173.8C972.495 177.467 977.395 182.367 980.928 188.5C984.461 182.367 989.328 177.467 995.528 173.8C1001.73 170.067 1008.59 168.2 1016.13 168.2C1023.66 168.2 1030.53 170.033 1036.73 173.7C1042.93 177.367 1047.86 182.3 1051.53 188.5C1055.19 194.7 1057.03 201.567 1057.03 209.1V271H1043.03V212.2C1043.03 206.867 1041.73 201.933 1039.13 197.4C1036.53 192.867 1033.03 189.233 1028.63 186.5C1024.29 183.7 1019.46 182.3 1014.13 182.3C1008.79 182.3 1003.93 183.6 999.528 186.2C995.195 188.733 991.728 192.267 989.128 196.8C986.528 201.267 985.228 206.4 985.228 212.2V271H971.228V212.2C971.228 206.4 969.928 201.267 967.328 196.8C964.728 192.267 961.228 188.733 956.828 186.2C952.428 183.6 947.561 182.3 942.228 182.3C936.961 182.3 932.128 183.7 927.728 186.5C923.328 189.233 919.828 192.867 917.228 197.4C914.628 201.933 913.328 206.867 913.328 212.2V271H899.328ZM1125.11 271V131H1171.41C1181.08 131 1190.14 132.833 1198.61 136.5C1207.08 140.1 1214.51 145.133 1220.91 151.6C1227.31 158 1232.31 165.433 1235.91 173.9C1239.58 182.3 1241.41 191.333 1241.41 201C1241.41 210.667 1239.58 219.733 1235.91 228.2C1232.31 236.6 1227.31 244.033 1220.91 250.5C1214.51 256.9 1207.08 261.933 1198.61 265.6C1190.14 269.2 1181.08 271 1171.41 271H1125.11ZM1139.11 257H1171.41C1179.14 257 1186.38 255.567 1193.11 252.7C1199.91 249.767 1205.88 245.733 1211.01 240.6C1216.14 235.467 1220.14 229.533 1223.01 222.8C1225.94 216 1227.41 208.733 1227.41 201C1227.41 193.267 1225.94 186.033 1223.01 179.3C1220.14 172.5 1216.11 166.533 1210.91 161.4C1205.78 156.267 1199.84 152.267 1193.11 149.4C1186.38 146.467 1179.14 145 1171.41 145H1139.11V257ZM1258.7 171H1272.7V271H1258.7V171ZM1265.8 153.5C1263.54 153.5 1261.6 152.767 1260 151.3C1258.47 149.767 1257.7 147.867 1257.7 145.6C1257.7 143.333 1258.47 141.467 1260 140C1261.6 138.467 1263.54 137.7 1265.8 137.7C1268 137.7 1269.87 138.467 1271.4 140C1273 141.467 1273.8 143.333 1273.8 145.6C1273.8 147.867 1273.04 149.767 1271.5 151.3C1269.97 152.767 1268.07 153.5 1265.8 153.5ZM1339.81 273.6C1330.61 273.6 1322.21 271.233 1314.61 266.5C1307.08 261.767 1301.05 255.433 1296.51 247.5C1292.05 239.5 1289.81 230.667 1289.81 221C1289.81 213.667 1291.11 206.833 1293.71 200.5C1296.31 194.1 1299.88 188.5 1304.41 183.7C1309.01 178.833 1314.35 175.033 1320.41 172.3C1326.48 169.567 1332.95 168.2 1339.81 168.2C1349.01 168.2 1357.38 170.567 1364.91 175.3C1372.51 180.033 1378.55 186.4 1383.01 194.4C1387.55 202.4 1389.81 211.267 1389.81 221C1389.81 228.267 1388.51 235.067 1385.91 241.4C1383.31 247.733 1379.71 253.333 1375.11 258.2C1370.58 263 1365.28 266.767 1359.21 269.5C1353.21 272.233 1346.75 273.6 1339.81 273.6ZM1339.81 259.6C1346.61 259.6 1352.71 257.833 1358.11 254.3C1363.58 250.7 1367.88 245.967 1371.01 240.1C1374.21 234.233 1375.81 227.867 1375.81 221C1375.81 214 1374.21 207.567 1371.01 201.7C1367.81 195.767 1363.48 191.033 1358.01 187.5C1352.61 183.967 1346.55 182.2 1339.81 182.2C1333.01 182.2 1326.88 184 1321.41 187.6C1316.01 191.133 1311.71 195.833 1308.51 201.7C1305.38 207.567 1303.81 214 1303.81 221C1303.81 228.2 1305.45 234.733 1308.71 240.6C1311.98 246.4 1316.35 251.033 1321.81 254.5C1327.28 257.9 1333.28 259.6 1339.81 259.6ZM1485.27 171H1499.27V274.7C1499.27 281.1 1497.87 287.1 1495.07 292.7C1492.34 298.3 1488.61 303.2 1483.87 307.4C1479.21 311.667 1473.87 315 1467.87 317.4C1461.87 319.8 1455.64 321 1449.17 321C1442.24 321 1435.54 319.4 1429.07 316.2C1422.61 313.067 1416.97 308.867 1412.17 303.6C1407.44 298.333 1404.07 292.5 1402.07 286.1L1414.97 280.2C1416.24 285.2 1418.61 289.7 1422.07 293.7C1425.61 297.767 1429.74 300.967 1434.47 303.3C1439.27 305.7 1444.17 306.9 1449.17 306.9C1453.77 306.9 1458.21 306.033 1462.47 304.3C1466.81 302.633 1470.67 300.333 1474.07 297.4C1477.54 294.467 1480.27 291.033 1482.27 287.1C1484.27 283.233 1485.27 279.1 1485.27 274.7V252.6C1481.81 258.867 1477.11 263.933 1471.17 267.8C1465.31 271.667 1458.47 273.6 1450.67 273.6C1443.67 273.6 1437.07 272.233 1430.87 269.5C1424.74 266.767 1419.34 263 1414.67 258.2C1410.01 253.333 1406.34 247.733 1403.67 241.4C1401.07 235.067 1399.77 228.267 1399.77 221C1399.77 213.733 1401.07 206.933 1403.67 200.6C1406.34 194.2 1410.01 188.6 1414.67 183.8C1419.34 178.933 1424.74 175.133 1430.87 172.4C1437.07 169.667 1443.67 168.3 1450.67 168.3C1458.47 168.3 1465.31 170.233 1471.17 174.1C1477.11 177.9 1481.81 182.967 1485.27 189.3V171ZM1450.77 260C1457.71 260 1463.67 258.2 1468.67 254.6C1473.74 251 1477.64 246.233 1480.37 240.3C1483.11 234.367 1484.47 227.933 1484.47 221C1484.47 213.867 1483.07 207.367 1480.27 201.5C1477.54 195.567 1473.64 190.833 1468.57 187.3C1463.51 183.7 1457.57 181.9 1450.77 181.9C1443.97 181.9 1437.77 183.667 1432.17 187.2C1426.64 190.667 1422.24 195.367 1418.97 201.3C1415.71 207.233 1414.07 213.8 1414.07 221C1414.07 228.2 1415.74 234.767 1419.07 240.7C1422.41 246.567 1426.84 251.267 1432.37 254.8C1437.97 258.267 1444.11 260 1450.77 260ZM1566.38 273.6C1557.18 273.6 1548.78 271.233 1541.18 266.5C1533.64 261.767 1527.61 255.433 1523.08 247.5C1518.61 239.5 1516.38 230.667 1516.38 221C1516.38 213.667 1517.68 206.833 1520.28 200.5C1522.88 194.1 1526.44 188.5 1530.98 183.7C1535.58 178.833 1540.91 175.033 1546.98 172.3C1553.04 169.567 1559.51 168.2 1566.38 168.2C1575.58 168.2 1583.94 170.567 1591.48 175.3C1599.08 180.033 1605.11 186.4 1609.58 194.4C1614.11 202.4 1616.38 211.267 1616.38 221C1616.38 228.267 1615.08 235.067 1612.48 241.4C1609.88 247.733 1606.28 253.333 1601.68 258.2C1597.14 263 1591.84 266.767 1585.78 269.5C1579.78 272.233 1573.31 273.6 1566.38 273.6ZM1566.38 259.6C1573.18 259.6 1579.28 257.833 1584.68 254.3C1590.14 250.7 1594.44 245.967 1597.58 240.1C1600.78 234.233 1602.38 227.867 1602.38 221C1602.38 214 1600.78 207.567 1597.58 201.7C1594.38 195.767 1590.04 191.033 1584.58 187.5C1579.18 183.967 1573.11 182.2 1566.38 182.2C1559.58 182.2 1553.44 184 1547.98 187.6C1542.58 191.133 1538.28 195.833 1535.08 201.7C1531.94 207.567 1530.38 214 1530.38 221C1530.38 228.2 1532.01 234.733 1535.28 240.6C1538.54 246.4 1542.91 251.033 1548.38 254.5C1553.84 257.9 1559.84 259.6 1566.38 259.6Z" fill="white"/>
<defs>
<linearGradient id="paint0_linear_613_27" x1="1.99777" y1="252.575" x2="2048.5" y2="252.575" gradientUnits="userSpaceOnUse">
<stop stop-color="#004AAD"/>
<stop offset="0.125" stop-color="#004AAD"/>
<stop offset="0.156" stop-color="#004AAD"/>
<stop offset="0.16" stop-color="#014AAE"/>
<stop offset="0.164" stop-color="#024AAE"/>
<stop offset="0.168" stop-color="#034AAE"/>
<stop offset="0.172" stop-color="#034AAF"/>
<stop offset="0.176" stop-color="#044AAF"/>
<stop offset="0.18" stop-color="#044AAF"/>
<stop offset="0.184" stop-color="#054AB0"/>
<stop offset="0.188" stop-color="#054AB0"/>
<stop offset="0.191" stop-color="#064AB0"/>
<stop offset="0.195" stop-color="#064AB1"/>
<stop offset="0.199" stop-color="#074AB1"/>
<stop offset="0.203" stop-color="#074AB1"/>
<stop offset="0.207" stop-color="#084AB2"/>
<stop offset="0.211" stop-color="#094AB2"/>
<stop offset="0.215" stop-color="#094AB2"/>
<stop offset="0.219" stop-color="#0A4BB3"/>
<stop offset="0.223" stop-color="#0A4BB3"/>
<stop offset="0.227" stop-color="#0B4BB3"/>
<stop offset="0.23" stop-color="#0B4BB3"/>
<stop offset="0.234" stop-color="#0C4BB4"/>
<stop offset="0.238" stop-color="#0C4BB4"/>
<stop offset="0.242" stop-color="#0D4BB4"/>
<stop offset="0.246" stop-color="#0D4BB5"/>
<stop offset="0.25" stop-color="#0E4BB5"/>
<stop offset="0.254" stop-color="#0E4BB5"/>
<stop offset="0.258" stop-color="#0F4BB6"/>
<stop offset="0.262" stop-color="#104BB6"/>
<stop offset="0.266" stop-color="#104BB6"/>
<stop offset="0.27" stop-color="#114BB7"/>
<stop offset="0.273" stop-color="#114BB7"/>
<stop offset="0.277" stop-color="#124BB7"/>
<stop offset="0.281" stop-color="#124BB8"/>
<stop offset="0.285" stop-color="#134BB8"/>
<stop offset="0.289" stop-color="#134BB8"/>
<stop offset="0.293" stop-color="#144BB9"/>
<stop offset="0.297" stop-color="#144BB9"/>
<stop offset="0.301" stop-color="#154BB9"/>
<stop offset="0.305" stop-color="#164BBA"/>
<stop offset="0.309" stop-color="#164BBA"/>
<stop offset="0.313" stop-color="#174BBA"/>
<stop offset="0.316" stop-color="#174BBA"/>
<stop offset="0.32" stop-color="#184BBB"/>
<stop offset="0.324" stop-color="#184BBB"/>
<stop offset="0.328" stop-color="#194BBB"/>
<stop offset="0.332" stop-color="#194BBC"/>
<stop offset="0.336" stop-color="#1A4BBC"/>
<stop offset="0.34" stop-color="#1A4BBC"/>
<stop offset="0.344" stop-color="#1B4CBD"/>
<stop offset="0.348" stop-color="#1C4CBD"/>
<stop offset="0.352" stop-color="#1C4CBD"/>
<stop offset="0.355" stop-color="#1D4CBE"/>
<stop offset="0.359" stop-color="#1D4CBE"/>
<stop offset="0.363" stop-color="#1E4CBE"/>
<stop offset="0.367" stop-color="#1E4CBF"/>
<stop offset="0.371" stop-color="#1F4CBF"/>
<stop offset="0.375" stop-color="#1F4CBF"/>
<stop offset="0.379" stop-color="#204CC0"/>
<stop offset="0.383" stop-color="#204CC0"/>
<stop offset="0.387" stop-color="#214CC0"/>
<stop offset="0.391" stop-color="#214CC1"/>
<stop offset="0.395" stop-color="#224CC1"/>
<stop offset="0.398" stop-color="#234CC1"/>
<stop offset="0.402" stop-color="#234CC1"/>
<stop offset="0.406" stop-color="#244CC2"/>
<stop offset="0.41" stop-color="#244CC2"/>
<stop offset="0.414" stop-color="#254CC2"/>
<stop offset="0.418" stop-color="#254CC3"/>
<stop offset="0.422" stop-color="#264CC3"/>
<stop offset="0.426" stop-color="#264CC3"/>
<stop offset="0.43" stop-color="#274CC4"/>
<stop offset="0.434" stop-color="#274CC4"/>
<stop offset="0.438" stop-color="#284CC4"/>
<stop offset="0.441" stop-color="#294CC5"/>
<stop offset="0.445" stop-color="#294CC5"/>
<stop offset="0.449" stop-color="#2A4CC5"/>
<stop offset="0.453" stop-color="#2A4CC6"/>
<stop offset="0.457" stop-color="#2B4CC6"/>
<stop offset="0.461" stop-color="#2B4CC6"/>
<stop offset="0.465" stop-color="#2C4DC7"/>
<stop offset="0.469" stop-color="#2C4DC7"/>
<stop offset="0.473" stop-color="#2D4DC7"/>
<stop offset="0.477" stop-color="#2D4DC8"/>
<stop offset="0.48" stop-color="#2E4DC8"/>
<stop offset="0.484" stop-color="#2E4DC8"/>
<stop offset="0.488" stop-color="#2F4DC8"/>
<stop offset="0.492" stop-color="#304DC9"/>
<stop offset="0.496" stop-color="#304DC9"/>
<stop offset="0.5" stop-color="#314DC9"/>
<stop offset="0.504" stop-color="#314DCA"/>
<stop offset="0.508" stop-color="#324DCA"/>
<stop offset="0.512" stop-color="#324DCA"/>
<stop offset="0.516" stop-color="#334DCB"/>
<stop offset="0.52" stop-color="#334DCB"/>
<stop offset="0.523" stop-color="#344DCB"/>
<stop offset="0.527" stop-color="#344DCC"/>
<stop offset="0.531" stop-color="#354DCC"/>
<stop offset="0.535" stop-color="#364DCC"/>
<stop offset="0.539" stop-color="#364DCD"/>
<stop offset="0.543" stop-color="#374DCD"/>
<stop offset="0.547" stop-color="#374DCD"/>
<stop offset="0.551" stop-color="#384DCE"/>
<stop offset="0.555" stop-color="#384DCE"/>
<stop offset="0.559" stop-color="#394DCE"/>
<stop offset="0.563" stop-color="#394DCF"/>
<stop offset="0.566" stop-color="#3A4DCF"/>
<stop offset="0.57" stop-color="#3A4DCF"/>
<stop offset="0.574" stop-color="#3B4DCF"/>
<stop offset="0.578" stop-color="#3B4DD0"/>
<stop offset="0.582" stop-color="#3C4DD0"/>
<stop offset="0.586" stop-color="#3D4DD0"/>
<stop offset="0.59" stop-color="#3D4ED1"/>
<stop offset="0.594" stop-color="#3E4ED1"/>
<stop offset="0.598" stop-color="#3E4ED1"/>
<stop offset="0.602" stop-color="#3F4ED2"/>
<stop offset="0.605" stop-color="#3F4ED2"/>
<stop offset="0.609" stop-color="#404ED2"/>
<stop offset="0.613" stop-color="#404ED3"/>
<stop offset="0.617" stop-color="#414ED3"/>
<stop offset="0.621" stop-color="#414ED3"/>
<stop offset="0.625" stop-color="#424ED4"/>
<stop offset="0.629" stop-color="#434ED4"/>
<stop offset="0.633" stop-color="#434ED4"/>
<stop offset="0.637" stop-color="#444ED5"/>
<stop offset="0.641" stop-color="#444ED5"/>
<stop offset="0.645" stop-color="#454ED5"/>
<stop offset="0.648" stop-color="#454ED6"/>
<stop offset="0.652" stop-color="#464ED6"/>
<stop offset="0.656" stop-color="#464ED6"/>
<stop offset="0.66" stop-color="#474ED6"/>
<stop offset="0.664" stop-color="#474ED7"/>
<stop offset="0.668" stop-color="#484ED7"/>
<stop offset="0.672" stop-color="#484ED7"/>
<stop offset="0.676" stop-color="#494ED8"/>
<stop offset="0.68" stop-color="#4A4ED8"/>
<stop offset="0.684" stop-color="#4A4ED8"/>
<stop offset="0.688" stop-color="#4B4ED9"/>
<stop offset="0.691" stop-color="#4B4ED9"/>
<stop offset="0.695" stop-color="#4C4ED9"/>
<stop offset="0.699" stop-color="#4C4EDA"/>
<stop offset="0.703" stop-color="#4D4EDA"/>
<stop offset="0.707" stop-color="#4D4EDA"/>
<stop offset="0.711" stop-color="#4E4EDB"/>
<stop offset="0.715" stop-color="#4E4FDB"/>
<stop offset="0.719" stop-color="#4F4FDB"/>
<stop offset="0.723" stop-color="#504FDC"/>
<stop offset="0.727" stop-color="#504FDC"/>
<stop offset="0.73" stop-color="#514FDC"/>
<stop offset="0.734" stop-color="#514FDC"/>
<stop offset="0.738" stop-color="#524FDD"/>
<stop offset="0.742" stop-color="#524FDD"/>
<stop offset="0.746" stop-color="#534FDD"/>
<stop offset="0.75" stop-color="#534FDE"/>
<stop offset="0.754" stop-color="#544FDE"/>
<stop offset="0.758" stop-color="#544FDE"/>
<stop offset="0.762" stop-color="#554FDF"/>
<stop offset="0.766" stop-color="#564FDF"/>
<stop offset="0.77" stop-color="#564FDF"/>
<stop offset="0.773" stop-color="#574FE0"/>
<stop offset="0.777" stop-color="#574FE0"/>
<stop offset="0.781" stop-color="#584FE0"/>
<stop offset="0.785" stop-color="#584FE1"/>
<stop offset="0.789" stop-color="#594FE1"/>
<stop offset="0.793" stop-color="#594FE1"/>
<stop offset="0.797" stop-color="#5A4FE2"/>
<stop offset="0.801" stop-color="#5A4FE2"/>
<stop offset="0.805" stop-color="#5B4FE2"/>
<stop offset="0.809" stop-color="#5B4FE3"/>
<stop offset="0.813" stop-color="#5C4FE3"/>
<stop offset="0.816" stop-color="#5D4FE3"/>
<stop offset="0.82" stop-color="#5D4FE3"/>
<stop offset="0.824" stop-color="#5E4FE4"/>
<stop offset="0.828" stop-color="#5E4FE4"/>
<stop offset="0.832" stop-color="#5F4FE4"/>
<stop offset="0.836" stop-color="#5F50E5"/>
<stop offset="0.84" stop-color="#6050E5"/>
<stop offset="0.844" stop-color="#6050E5"/>
<stop offset="0.848" stop-color="#6150E6"/>
<stop offset="0.852" stop-color="#6150E6"/>
<stop offset="0.855" stop-color="#6250E6"/>
<stop offset="0.859" stop-color="#6350E7"/>
<stop offset="0.863" stop-color="#6350E7"/>
<stop offset="0.867" stop-color="#6450E7"/>
<stop offset="0.871" stop-color="#6450E8"/>
<stop offset="0.875" stop-color="#6550E8"/>
<stop offset="0.879" stop-color="#6550E8"/>
<stop offset="0.883" stop-color="#6650E9"/>
<stop offset="0.887" stop-color="#6650E9"/>
<stop offset="0.891" stop-color="#6750E9"/>
<stop offset="0.895" stop-color="#6750EA"/>
<stop offset="0.898" stop-color="#6850EA"/>
<stop offset="0.902" stop-color="#6850EA"/>
<stop offset="0.906" stop-color="#6950EA"/>
<stop offset="0.91" stop-color="#6A50EB"/>
<stop offset="0.914" stop-color="#6A50EB"/>
<stop offset="0.918" stop-color="#6B50EB"/>
<stop offset="0.922" stop-color="#6B50EC"/>
<stop offset="0.926" stop-color="#6C50EC"/>
<stop offset="0.93" stop-color="#6C50EC"/>
<stop offset="0.934" stop-color="#6D50ED"/>
<stop offset="0.938" stop-color="#6D50ED"/>
<stop offset="0.941" stop-color="#6E50ED"/>
<stop offset="0.945" stop-color="#6E50EE"/>
<stop offset="0.949" stop-color="#6F50EE"/>
<stop offset="0.953" stop-color="#7050EE"/>
<stop offset="0.957" stop-color="#7050EF"/>
<stop offset="0.961" stop-color="#7151EF"/>
<stop offset="0.965" stop-color="#7151EF"/>
<stop offset="0.969" stop-color="#7251F0"/>
<stop offset="0.973" stop-color="#7251F0"/>
<stop offset="0.977" stop-color="#7351F0"/>
<stop offset="0.98" stop-color="#7351F1"/>
<stop offset="0.984" stop-color="#7451F1"/>
<stop offset="0.988" stop-color="#7451F1"/>
<stop offset="0.992" stop-color="#7551F1"/>
<stop offset="0.996" stop-color="#7551F2"/>
<stop offset="1" stop-color="#7651F2"/>
</linearGradient>
</defs>
</svg>
